<svg width="56" height="56" viewBox="0 0 56 56" fill="none" xmlns="http://www.w3.org/2000/svg">
<path d="M22.6911 21.5605C23.5498 21.5605 24.3781 21.8134 25.0863 22.2919C25.4618 22.5457 25.9717 22.4468 26.2253 22.0713C26.4789 21.696 26.3801 21.186 26.0046 20.9324C25.0242 20.27 23.8784 19.9199 22.6911 19.9199C19.4238 19.9199 16.7656 22.5781 16.7656 25.8454C16.7656 29.1128 19.4238 31.7709 22.6911 31.7709C24.1921 31.7709 25.56 31.2002 26.5359 30.0366C26.827 29.6894 26.7816 29.1721 26.4345 28.8809C26.0874 28.5897 25.57 28.6352 25.2788 28.9823C24.6603 29.72 23.7914 30.1303 22.6911 30.1303C20.3284 30.1303 18.4063 28.2081 18.4063 25.8454C18.4063 23.4827 20.3284 21.5605 22.6911 21.5605Z" fill="black"/>
<path d="M45.5564 27.0211C45.5564 25.7182 44.4964 24.6582 43.1934 24.6582C42.0669 24.6582 41.0918 25.4597 40.8749 26.5641C40.7876 27.0086 41.0772 27.4397 41.5217 27.5271C41.9661 27.6142 42.3974 27.3249 42.4848 26.8803C42.551 26.5434 42.849 26.2989 43.1934 26.2989C43.5774 26.2989 43.8923 26.6002 43.9144 26.9787C43.911 26.99 43.9305 27.325 43.3931 28.0928C42.4398 29.455 41.8711 30.1996 41.5656 30.5996C41.1833 31.1 40.9729 31.3757 41.1101 31.8218C41.1916 32.0872 41.3921 32.2906 41.6598 32.3799C41.9653 32.4818 43.9032 32.4453 45.0017 32.4314C45.4548 32.4257 45.8174 32.0538 45.8116 31.6008C45.806 31.1477 45.4321 30.7883 44.9811 30.7909C44.4739 30.7973 43.9395 30.8018 43.4658 30.8038C43.7847 30.3733 44.2018 29.7984 44.7371 29.0335C45.1343 28.4663 45.5564 27.7129 45.5564 27.0211Z" fill="black"/>
<path d="M27.4961 25.8454C27.4961 29.1128 30.1542 31.7709 33.4216 31.7709C36.689 31.7709 39.3471 29.1128 39.3471 25.8454C39.3471 22.5781 36.689 19.9199 33.4216 19.9199C30.1542 19.9199 27.4961 22.5781 27.4961 25.8454ZM37.7064 25.8454C37.7064 28.2081 35.7842 30.1303 33.4215 30.1303C31.0588 30.1303 29.1366 28.2081 29.1366 25.8454C29.1366 23.4827 31.0588 21.5605 33.4215 21.5605C35.7842 21.5605 37.7064 23.4827 37.7064 25.8454Z" fill="black"/>
<path d="M1.64062 30.0597C1.64062 27.9391 2.54406 25.9079 4.11917 24.4867C5.71681 23.0453 7.77864 22.3733 9.92545 22.5946C10.3825 22.6417 10.79 22.3038 10.8272 21.845C10.9621 20.1814 11.7131 18.638 12.9418 17.499C15.1123 15.4867 18.2667 15.1967 20.719 16.5675C21.236 16.8566 21.881 16.5178 21.936 15.9277C22.5157 9.71442 27.7455 4.87305 34.0851 4.87305C36.8009 4.87305 39.3717 5.74662 41.5196 7.39939C41.8785 7.67556 42.3937 7.60862 42.67 7.24955C42.9463 6.89047 42.8793 6.37542 42.5202 6.09914C40.0829 4.22369 37.1662 3.23242 34.0852 3.23242C27.3634 3.23242 21.6258 8.06461 20.4566 14.6372C17.5394 13.5149 14.1862 14.1081 11.8265 16.2957C10.4939 17.5311 9.61242 19.1489 9.29556 20.9155C6.98731 20.8797 4.74064 21.7165 3.02028 23.2686C1.10075 25.0002 0 27.4755 0 30.0597C0 31.7505 0.466047 33.4033 1.34783 34.8391C1.58452 35.2245 2.08939 35.3462 2.47614 35.1088C2.86223 34.8718 2.98298 34.3666 2.74586 33.9805C2.02278 32.8032 1.64062 31.4473 1.64062 30.0597Z" fill="black"/>
<path d="M47.8381 18.6589C47.8979 18.134 47.9281 17.6045 47.9281 17.0769C47.9281 13.9556 46.9138 11.0089 44.9949 8.55525C44.7158 8.19847 44.2004 8.13525 43.8433 8.41438C43.4865 8.6935 43.4235 9.20899 43.7026 9.56588C45.3936 11.7282 46.2876 14.3254 46.2876 17.0768C46.2876 17.7829 46.2263 18.4925 46.1054 19.1862C46.0257 19.6437 46.3419 20.0767 46.8025 20.1397C51.1101 20.7288 54.3586 24.457 54.3586 28.8118C54.3586 33.6387 50.4316 37.5657 45.6047 37.5657H19.8242V35.8252C19.8242 34.0789 18.4034 32.6581 16.6571 32.6581H12.4719C10.7256 32.6581 9.30481 34.0789 9.30481 35.8252V37.5657H9.14512C7.56093 37.5657 6.04499 37.0762 4.76115 36.1503C4.39365 35.8853 3.88101 35.9683 3.61599 36.3358C3.35098 36.7032 3.43399 37.216 3.80149 37.481C5.36643 38.6097 7.21421 39.2063 9.14512 39.2063H9.30481V43.664H8.05301C6.23213 43.664 5.34707 45.8945 6.67226 47.1431L11.246 51.452C13.1069 53.2052 16.022 53.205 17.8828 51.452L22.4565 47.1431C23.7818 45.8943 22.8965 43.664 21.0757 43.664H19.8241V39.2063H45.6046C51.3361 39.2063 55.9991 34.5433 55.9991 28.8118C55.9992 23.9185 52.5446 19.6916 47.8381 18.6589ZM21.076 45.3046C21.4131 45.3046 21.5806 45.7143 21.3316 45.9489L16.7578 50.2579C15.528 51.4166 13.6011 51.4166 12.3712 50.2579L7.79751 45.9489C7.54824 45.7141 7.71646 45.3046 8.05312 45.3046H10.1251C10.5781 45.3046 10.9454 44.9373 10.9454 44.4843C10.9454 43.8717 10.9454 37.3514 10.9454 35.8252C10.9454 34.9835 11.6302 34.2987 12.4719 34.2987H16.6571C17.4987 34.2987 18.1835 34.9835 18.1835 35.8252V44.4843C18.1835 44.9373 18.5508 45.3046 19.0039 45.3046H21.076Z" fill="black"/>
</svg>
