<svg width="56" height="56" viewBox="0 0 56 56" fill="none" xmlns="http://www.w3.org/2000/svg">
<path d="M28 41.9992C13.2807 41.9992 1.75 37.003 1.75 30.6242C1.75 26.1889 7.3815 22.2636 16.45 20.3797C16.6731 20.3433 16.9017 20.3946 17.0878 20.5229C17.274 20.6512 17.4032 20.8466 17.4484 21.0681C17.4937 21.2896 17.4515 21.5201 17.3306 21.7111C17.2097 21.9022 17.0195 22.039 16.8 22.093C8.722 23.7721 3.5 27.1242 3.5 30.6242C3.5 35.8419 14.7192 40.2492 28 40.2492C41.2808 40.2492 52.5 35.8419 52.5 30.6242C52.5 27.1242 47.278 23.7721 39.2 22.093C39.0875 22.0695 38.9807 22.0242 38.8858 21.9595C38.7908 21.8948 38.7095 21.812 38.6466 21.7159C38.5836 21.6197 38.5402 21.5122 38.5188 21.3993C38.4974 21.2864 38.4984 21.1703 38.5219 21.0579C38.5453 20.9454 38.5907 20.8386 38.6554 20.7436C38.7201 20.6487 38.8029 20.5674 38.899 20.5044C38.9951 20.4414 39.1027 20.398 39.2156 20.3766C39.3285 20.3552 39.4445 20.3563 39.557 20.3797C48.6185 22.2636 54.25 26.1889 54.25 30.6242C54.25 37.003 42.7192 41.9992 28 41.9992Z" fill="black"/>
<path d="M28.0006 31.4996C27.8314 31.4996 27.666 31.4505 27.5241 31.3584C27.3823 31.2662 27.2702 31.135 27.2014 30.9805C27.1326 30.8259 27.1101 30.6548 27.1366 30.4878C27.163 30.3207 27.2373 30.1649 27.3504 30.0392C27.4869 29.8852 30.6999 26.1822 27.3504 22.46C25.8629 20.8062 25.2093 19.156 25.4106 17.5547C25.5176 16.8754 25.7588 16.2242 26.1201 15.6391C26.4814 15.0539 26.9555 14.5466 27.5149 14.1466C27.7077 14.0172 27.9439 13.9697 28.1717 14.0145C28.3994 14.0593 28.6001 14.1927 28.7294 14.3855C28.8588 14.5782 28.9063 14.8144 28.8615 15.0422C28.8167 15.27 28.6833 15.4706 28.4906 15.6C27.7758 16.1275 27.2934 16.9116 27.1448 17.7875C27.0171 18.8576 27.5246 20.0353 28.6507 21.2875C29.9043 22.635 30.6012 24.4073 30.6012 26.2478C30.6012 28.0884 29.9043 29.8606 28.6507 31.2082C28.569 31.2999 28.4689 31.3733 28.3568 31.4235C28.2448 31.4738 28.1234 31.4997 28.0006 31.4996Z" fill="black"/>
<path d="M21.0006 31.4996C20.8314 31.4996 20.666 31.4505 20.5241 31.3584C20.3823 31.2662 20.2702 31.135 20.2014 30.9805C20.1326 30.8259 20.1101 30.6548 20.1366 30.4878C20.163 30.3207 20.2373 30.1649 20.3504 30.0392C20.4869 29.8852 23.6999 26.1822 20.3504 22.46C18.8629 20.8062 18.2093 19.156 18.4106 17.5547C18.5176 16.8754 18.7588 16.2242 19.1201 15.6391C19.4814 15.0539 19.9555 14.5466 20.5149 14.1466C20.7077 14.0172 20.9439 13.9697 21.1717 14.0145C21.3994 14.0593 21.6001 14.1927 21.7294 14.3855C21.8588 14.5782 21.9063 14.8144 21.8615 15.0422C21.8167 15.27 21.6833 15.4706 21.4906 15.6C20.7758 16.1275 20.2934 16.9116 20.1448 17.7875C20.0171 18.8576 20.5246 20.0353 21.6507 21.2875C22.9043 22.635 23.6012 24.4073 23.6012 26.2478C23.6012 28.0884 22.9043 29.8606 21.6507 31.2082C21.569 31.2999 21.4689 31.3733 21.3568 31.4235C21.2448 31.4738 21.1234 31.4997 21.0006 31.4996Z" fill="black"/>
<path d="M35.0006 31.4996C34.8314 31.4996 34.666 31.4505 34.5241 31.3584C34.3823 31.2662 34.2702 31.135 34.2014 30.9805C34.1326 30.8259 34.1101 30.6548 34.1366 30.4878C34.163 30.3207 34.2373 30.1649 34.3504 30.0392C34.4869 29.8852 37.6999 26.1822 34.3504 22.46C32.8629 20.8062 32.2093 19.156 32.4106 17.5547C32.5176 16.8754 32.7588 16.2242 33.1201 15.6391C33.4814 15.0539 33.9555 14.5466 34.5149 14.1466C34.7077 14.0172 34.9439 13.9697 35.1717 14.0145C35.3994 14.0593 35.6001 14.1927 35.7294 14.3855C35.8588 14.5782 35.9063 14.8144 35.8615 15.0422C35.8167 15.27 35.6833 15.4706 35.4906 15.6C34.7758 16.1275 34.2934 16.9116 34.1448 17.7875C34.0171 18.8576 34.5246 20.0353 35.6507 21.2875C36.9043 22.635 37.6012 24.4073 37.6012 26.2478C37.6012 28.0884 36.9043 29.8606 35.6507 31.2082C35.569 31.2999 35.4689 31.3733 35.3568 31.4235C35.2448 31.4738 35.1234 31.4997 35.0006 31.4996Z" fill="black"/>
</svg>
