<svg width="56" height="56" viewBox="0 0 56 56" fill="none" xmlns="http://www.w3.org/2000/svg">
<path d="M50.345 18.3125H45.5859C45.1331 18.3125 44.7656 18.6799 44.7656 19.1328C44.7656 19.5857 45.1331 19.9531 45.5859 19.9531H50.345C50.7979 19.9531 51.1653 19.5857 51.1653 19.1328C51.1653 18.6799 50.7979 18.3125 50.345 18.3125Z" fill="black"/>
<path d="M45.5859 13.3066H47.7465C48.1994 13.3066 48.5668 12.9392 48.5668 12.4863C48.5668 12.033 48.1994 11.666 47.7465 11.666H45.5859C45.1331 11.666 44.7656 12.033 44.7656 12.4863C44.7656 12.9392 45.1331 13.3066 45.5859 13.3066Z" fill="black"/>
<path d="M45.5859 6.65625H48.5121C48.9655 6.65625 49.3325 6.28925 49.3325 5.83594C49.3325 5.38306 48.9655 5.01562 48.5121 5.01562H45.5859C45.1331 5.01562 44.7656 5.38306 44.7656 5.83594C44.7656 6.28925 45.1331 6.65625 45.5859 6.65625Z" fill="black"/>
<path d="M48.5126 31.6113H45.5859C45.1331 31.6113 44.7656 31.9783 44.7656 32.4316C44.7656 32.8845 45.1331 33.252 45.5859 33.252H48.5126C48.9655 33.252 49.3329 32.8845 49.3329 32.4316C49.3329 31.9783 48.9655 31.6113 48.5126 31.6113Z" fill="black"/>
<path d="M45.5859 26.6016H47.7465C48.1994 26.6016 48.5668 26.2346 48.5668 25.7812C48.5668 25.3284 48.1994 24.9609 47.7465 24.9609H45.5859C45.1331 24.9609 44.7656 25.3284 44.7656 25.7812C44.7656 26.2346 45.1331 26.6016 45.5859 26.6016Z" fill="black"/>
<path d="M42.0229 33.8849V7.41998C42.0229 3.32867 38.6946 0 34.6029 0C30.512 0 27.1833 3.32867 27.1833 7.41998V33.8849C24.1183 36.2065 22.3008 39.8424 22.3008 43.6979C22.3008 50.4813 27.8195 56 34.6029 56C41.3867 56 46.9055 50.4813 46.9055 43.6979C46.9055 39.8424 45.0884 36.2065 42.0229 33.8849ZM34.6029 54.3594C28.7244 54.3594 23.9414 49.5768 23.9414 43.6979C23.9414 40.2321 25.6367 36.97 28.4758 34.9727C28.6941 34.8188 28.824 34.5685 28.824 34.3015V7.41998C28.824 4.23315 31.4165 1.64062 34.6029 1.64062C37.7897 1.64062 40.3823 4.23315 40.3823 7.41998V34.3015C40.3823 34.5685 40.5121 34.8188 40.7305 34.9727C43.5695 36.9705 45.2648 40.2321 45.2648 43.6979C45.2648 49.5768 40.4818 54.3594 34.6029 54.3594Z" fill="black"/>
<path d="M38.1965 35.5097V7.41913C38.1965 5.43884 36.5858 3.82812 34.6055 3.82812C32.6256 3.82812 31.0149 5.43884 31.0149 7.41913V28.4866C31.0149 28.9399 31.3823 29.3069 31.8352 29.3069C32.2881 29.3069 32.6555 28.9399 32.6555 28.4866V13.3049H36.5558V36.0587C36.5558 36.4014 36.7686 36.7081 37.0895 36.8278C39.8563 37.8583 41.7148 40.535 41.7148 43.4885C41.7148 47.4089 38.5259 50.5979 34.6055 50.5979C30.6855 50.5979 27.4961 47.4089 27.4961 43.4885C27.4961 40.535 29.355 37.8583 32.1215 36.8278C32.4427 36.7077 32.6555 36.4014 32.6555 36.0587V31.7687C32.6555 31.3159 32.2881 30.9484 31.8352 30.9484C31.3823 30.9484 31.0149 31.3159 31.0149 31.7687V35.5097C27.9067 36.9102 25.8555 40.0471 25.8555 43.4885C25.8555 48.3134 29.781 52.2385 34.6055 52.2385C39.4304 52.2385 43.3555 48.3134 43.3555 43.4885C43.3555 40.0471 41.3047 36.9106 38.1965 35.5097ZM32.6555 11.6642V7.41913C32.6555 6.34375 33.5305 5.46875 34.6059 5.46875C35.6808 5.46875 36.5558 6.34375 36.5558 7.41913V11.6642H32.6555Z" fill="black"/>
<path d="M22.512 17.5189C23.7364 17.6313 24.2649 16.0018 23.2092 15.3741C21.9253 14.6111 21.9232 12.7521 23.2092 11.9878C24.2658 11.3593 23.7352 9.73022 22.512 9.84258C21.0234 9.98058 19.9314 8.4754 20.5214 7.10308C21.0072 5.97387 19.6199 4.96728 18.6971 5.77734C17.5747 6.76257 15.8055 6.19006 15.4761 4.73101C15.2052 3.53173 13.4915 3.53301 13.2211 4.73101C12.8921 6.18749 11.1246 6.76385 10.0001 5.77734C9.07677 4.96642 7.69036 5.9743 8.17571 7.10308C8.76659 8.47668 7.67242 9.98016 6.18517 9.84258C4.96111 9.73107 4.43218 11.3597 5.48833 11.9878C6.77392 12.7521 6.77135 14.6115 5.48791 15.3741C4.43261 16.0018 4.96068 17.6309 6.18517 17.5189C7.67199 17.3809 8.76659 18.8848 8.17571 20.2584C7.68993 21.3876 9.0772 22.3942 10.0001 21.5842C11.1224 20.5989 12.8917 21.1719 13.2211 22.6305C13.4919 23.8298 15.2056 23.8285 15.4761 22.6305C15.805 21.174 17.573 20.5972 18.6971 21.5842C19.6208 22.3946 21.0072 21.3868 20.5214 20.2584C19.9318 18.8878 21.0226 17.3813 22.512 17.5189ZM21.428 15.9808C19.7729 16.4029 18.6125 17.9778 18.724 19.7026C17.1368 19.0711 15.2727 19.6633 14.349 21.1244C13.4347 19.6782 11.5779 19.0643 9.97356 19.7026C10.0842 17.994 8.94134 16.4072 7.26952 15.9808C8.36071 14.6666 8.37353 12.7107 7.26952 11.3807C8.93236 10.9568 10.0846 9.37688 9.97356 7.65893C11.5642 8.29168 13.427 7.69567 14.349 6.23748C15.2659 7.68798 17.1244 8.2951 18.724 7.65893C18.6133 9.36749 19.7562 10.9543 21.428 11.3807C20.3313 12.7017 20.3287 14.6572 21.428 15.9808Z" fill="black"/>
<path d="M14.3505 9.1582C11.8567 9.1582 9.82812 11.1872 9.82812 13.681C9.82812 16.1749 11.8567 18.2039 14.3505 18.2039C16.8444 18.2039 18.8734 16.1749 18.8734 13.681C18.8734 11.1872 16.8444 9.1582 14.3505 9.1582ZM14.3505 16.5628C12.7616 16.5628 11.4688 15.27 11.4688 13.681C11.4688 12.0917 12.7616 10.7988 14.3505 10.7988C15.9399 10.7988 17.2327 12.0917 17.2327 13.681C17.2327 15.27 15.9399 16.5628 14.3505 16.5628Z" fill="black"/>
</svg>
