<svg width="56" height="56" viewBox="0 0 56 56" fill="none" xmlns="http://www.w3.org/2000/svg">
<g clip-path="url(#clip0_2408_95)">
<path d="M28.7295 30.5627C28.6259 30.5403 28.5196 30.5362 28.4147 30.5519C27.3629 30.4295 26.5695 29.5396 26.5677 28.4811C26.5677 27.9739 26.1564 27.5626 25.6491 27.5626C25.1419 27.5626 24.7306 27.9739 24.7306 28.4811C24.7333 30.2487 25.9155 31.797 27.6199 32.2648V33.1834C27.6199 33.6906 28.0312 34.1019 28.5385 34.1019C29.0457 34.1019 29.457 33.6906 29.457 33.1834V32.3204C31.4242 31.9087 32.7613 30.0765 32.5545 28.0775C32.3473 26.0784 30.6631 24.5593 28.6533 24.5589C27.5015 24.5589 26.5677 23.625 26.5677 22.4733C26.5677 21.3215 27.5015 20.3877 28.6533 20.3877C29.8051 20.3877 30.7389 21.3215 30.7389 22.4733C30.7389 22.9805 31.1502 23.3918 31.6575 23.3918C32.1647 23.3918 32.576 22.9805 32.576 22.4733C32.5733 20.6173 31.2731 19.0165 29.457 18.6335V17.7975C29.457 17.2902 29.0457 16.8789 28.5385 16.8789C28.0312 16.8789 27.6199 17.2902 27.6199 17.7975V18.6896C25.7245 19.2072 24.5045 21.0474 24.7655 22.9949C25.0266 24.9423 26.6883 26.396 28.6533 26.3955C29.7898 26.3955 30.7169 27.3056 30.7375 28.4417C30.7586 29.5778 29.8652 30.5214 28.7295 30.5627Z" fill="black"/>
<path d="M15.3359 25.5466C15.3359 32.9032 21.2994 38.8666 28.656 38.8666C36.0125 38.8666 41.976 32.9032 41.976 25.5466C41.976 18.19 36.0125 12.2266 28.656 12.2266C21.303 12.2346 15.3445 18.1936 15.3359 25.5466ZM28.656 14.0637C34.998 14.0637 40.1389 19.2046 40.1389 25.5466C40.1389 31.8886 34.998 37.0295 28.656 37.0295C22.314 37.0295 17.1731 31.8886 17.1731 25.5466C17.1802 19.2077 22.3171 14.0709 28.656 14.0637Z" fill="black"/>
<path d="M46.5047 41.1325L39.3092 44.5322C38.3157 42.6843 36.41 41.5083 34.3127 41.4491L27.6702 41.2666C26.6184 41.2365 25.5864 40.9701 24.6512 40.487L23.9753 40.1367C20.5146 38.3328 16.3895 38.3373 12.9324 40.1484L12.9745 38.6172C12.9884 38.1099 12.5888 37.6874 12.0815 37.6735L4.79764 37.473C4.29037 37.4591 3.86831 37.8587 3.85441 38.366L3.41441 54.3502C3.40051 54.8575 3.80014 55.28 4.30741 55.2939L11.5913 55.4944H11.6164C12.1143 55.4944 12.5215 55.0984 12.535 54.601L12.5561 53.8362L14.4484 52.823C15.1911 52.4234 16.0594 52.3283 16.8708 52.558L28.1707 55.7294C28.1905 55.7353 28.2102 55.7397 28.2304 55.7442C29.0471 55.9151 29.8796 56.0008 30.7138 56.0003C32.481 56.0012 34.2275 55.6204 35.8336 54.8831C35.8731 54.8651 35.9112 54.844 35.9476 54.8203L52.3314 44.2227C52.7396 43.9586 52.8714 43.4226 52.6324 42.9992C51.416 40.8409 48.7182 40.0188 46.5047 41.1325ZM5.27621 53.4828L5.66552 39.3348L11.1128 39.4846L10.7234 53.6331L5.27621 53.4828ZM35.0061 53.2424C33.0107 54.143 30.782 54.3915 28.6372 53.9533L17.3678 50.7899C16.0994 50.4315 14.7417 50.58 13.5814 51.2039L12.6144 51.7219L12.8732 42.3152C15.9374 40.2771 19.8673 40.0677 23.1307 41.768L23.8067 42.1183C24.9881 42.7283 26.291 43.0647 27.62 43.1032L34.2629 43.2858C36.1288 43.3396 37.7134 44.6681 38.0919 46.4963L28.1972 46.2231C27.6899 46.2092 27.2679 46.6093 27.2535 47.1161C27.2396 47.6234 27.6397 48.0459 28.1465 48.0598L39.0661 48.3603H39.0917C39.5891 48.3598 39.9959 47.9638 40.0093 47.4669C40.0205 47.0677 39.9909 46.668 39.9205 46.2751L47.3008 42.7879C47.308 42.7848 47.3152 42.7812 47.3224 42.7776C48.3692 42.2479 49.6349 42.4251 50.4961 43.2221L35.0061 53.2424Z" fill="black"/>
<path d="M29.5715 9.6449V0.918562C29.5715 0.411289 29.1602 0 28.6529 0C28.1457 0 27.7344 0.411289 27.7344 0.918562V9.6449C27.7344 10.1522 28.1457 10.5635 28.6529 10.5635C29.1602 10.5635 29.5715 10.1522 29.5715 9.6449Z" fill="black"/>
<path d="M36.4621 9.64584V5.51231C36.4621 5.00504 36.0508 4.59375 35.5436 4.59375C35.0363 4.59375 34.625 5.00504 34.625 5.51231V9.64584C34.625 10.1531 35.0363 10.5644 35.5436 10.5644C36.0508 10.5644 36.4621 10.1531 36.4621 9.64584Z" fill="black"/>
<path d="M22.6848 9.64584V5.51231C22.6848 5.00504 22.2735 4.59375 21.7662 4.59375C21.2589 4.59375 20.8477 5.00504 20.8477 5.51231V9.64584C20.8477 10.1531 21.2589 10.5644 21.7662 10.5644C22.2735 10.5644 22.6848 10.1531 22.6848 9.64584Z" fill="black"/>
</g>
<defs>
<clipPath id="clip0_2408_95">
<rect width="56" height="56" fill="white"/>
</clipPath>
</defs>
</svg>
